<mxfile>
  <diagram name="Page-1">
    <mxGraphModel>
      <root>
        <mxCell id="0" />
        <mxCell id="1" parent="0" />
        <mxCell id="2" value="用户浏览器" style="shape=umlActor;verticalLabelPosition=bottom;verticalAlign=top;" vertex="1" parent="1">
          <mxGeometry x="200" y="80" width="30" height="60" as="geometry" />
        </mxCell>
        <mxCell id="3" value="静态资源服务器" style="rounded=0;whiteSpace=wrap;html=1;" vertex="1" parent="1">
          <mxGeometry x="140" y="200" width="120" height="60" as="geometry" />
        </mxCell>
        <mxCell id="4" value="Spring Boot 控制器" style="swimlane;rounded=0;whiteSpace=wrap;html=1;" vertex="1" parent="1">
          <mxGeometry x="340" y="200" width="120" height="60" as="geometry" />
        </mxCell>
        <mxCell id="5" value="MySQL 数据库" style="shape=cylinder3;whiteSpace=wrap;html=1;boundedLbl=1;backgroundOutline=1;" vertex="1" parent="1">
          <mxGeometry x="540" y="200" width="120" height="60" as="geometry" />
        </mxCell>
        <mxCell id="6" value="HTTP 请求" style="edgeStyle=orthogonalEdgeStyle;rounded=0;html=1;" edge="1" parent="1" source="2" target="3">
          <mxGeometry relative="1" as="geometry" />
        </mxCell>
        <mxCell id="7" value="API 调用" style="edgeStyle=orthogonalEdgeStyle;rounded=0;html=1;" edge="1" parent="1" source="3" target="4">
          <mxGeometry relative="1" as="geometry" />
        </mxCell>
        <mxCell id="8" value="数据库查询" style="edgeStyle=orthogonalEdgeStyle;rounded=0;html=1;" edge="1" parent="1" source="4" target="5">
          <mxGeometry relative="1" as="geometry" />
        </mxCell>
        
        <!-- 前端页面 -->
        <mxCell id="9" value="index.html\n主页" style="rounded=0;whiteSpace=wrap;html=1;" vertex="1" parent="1">
          <mxGeometry x="40" y="300" width="80" height="40" as="geometry" />
        </mxCell>
        <mxCell id="10" value="competition.html\n比赛页面" style="rounded=0;whiteSpace=wrap;html=1;" vertex="1" parent="1">
          <mxGeometry x="140" y="300" width="80" height="40" as="geometry" />
        </mxCell>
        <mxCell id="11" value="contact.html\n联系我们" style="rounded=0;whiteSpace=wrap;html=1;" vertex="1" parent="1">
          <mxGeometry x="240" y="300" width="80" height="40" as="geometry" />
        </mxCell>
        <mxCell id="12" value="works.html\n作品展示" style="rounded=0;whiteSpace=wrap;html=1;" vertex="1" parent="1">
          <mxGeometry x="340" y="300" width="80" height="40" as="geometry" />
        </mxCell>
        <mxCell id="13" value="navbar.html\n导航栏" style="rounded=0;whiteSpace=wrap;html=1;" vertex="1" parent="1">
          <mxGeometry x="440" y="300" width="80" height="40" as="geometry" />
        </mxCell>
        
        <!-- 前端页面与静态资源服务器关系 -->
        <mxCell id="14" value="" style="edgeStyle=orthogonalEdgeStyle;rounded=0;html=1;" edge="1" parent="1" source="9" target="3">
          <mxGeometry relative="1" as="geometry" />
        </mxCell>
        <mxCell id="15" value="" style="edgeStyle=orthogonalEdgeStyle;rounded=0;html=1;" edge="1" parent="1" source="10" target="3">
          <mxGeometry relative="1" as="geometry" />
        </mxCell>
        <mxCell id="16" value="" style="edgeStyle=orthogonalEdgeStyle;rounded=0;html=1;" edge="1" parent="1" source="11" target="3">
          <mxGeometry relative="1" as="geometry" />
        </mxCell>
        <mxCell id="17" value="" style="edgeStyle=orthogonalEdgeStyle;rounded=0;html=1;" edge="1" parent="1" source="12" target="3">
          <mxGeometry relative="1" as="geometry" />
        </mxCell>
        <mxCell id="18" value="" style="edgeStyle=orthogonalEdgeStyle;rounded=0;html=1;" edge="1" parent="1" source="13" target="3">
          <mxGeometry relative="1" as="geometry" />
        </mxCell>
        
        <!-- 控制器详情 -->
        <mxCell id="19" value="FileController\n文件上传" style="rounded=0;whiteSpace=wrap;html=1;" vertex="1" parent="1">
          <mxGeometry x="300" y="400" width="100" height="60" as="geometry" />
        </mxCell>
        <mxCell id="20" value="RkController\n报名处理" style="rounded=0;whiteSpace=wrap;html=1;" vertex="1" parent="1">
          <mxGeometry x="420" y="400" width="100" height="60" as="geometry" />
        </mxCell>
        
        <!-- 控制器与主控制器关系 -->
        <mxCell id="21" value="" style="edgeStyle=orthogonalEdgeStyle;rounded=0;html=1;" edge="1" parent="1" source="19" target="4">
          <mxGeometry relative="1" as="geometry" />
        </mxCell>
        <mxCell id="22" value="" style="edgeStyle=orthogonalEdgeStyle;rounded=0;html=1;" edge="1" parent="1" source="20" target="4">
          <mxGeometry relative="1" as="geometry" />
        </mxCell>
        
        <!-- 数据库表 -->
        <mxCell id="23" value="club_members\n社团成员表" style="shape=cylinder3;whiteSpace=wrap;html=1;boundedLbl=1;backgroundOutline=1;" vertex="1" parent="1">
          <mxGeometry x="500" y="400" width="120" height="60" as="geometry" />
        </mxCell>
        <mxCell id="24" value="MinIO存储\n作品文件" style="shape=cylinder3;whiteSpace=wrap;html=1;boundedLbl=1;backgroundOutline=1;" vertex="1" parent="1">
          <mxGeometry x="500" y="500" width="120" height="60" as="geometry" />
        </mxCell>
        
        <!-- 数据库关系 -->
        <mxCell id="25" value="" style="edgeStyle=orthogonalEdgeStyle;rounded=0;html=1;" edge="1" parent="1" source="20" target="23">
          <mxGeometry relative="1" as="geometry" />
        </mxCell>
        <mxCell id="26" value="" style="edgeStyle=orthogonalEdgeStyle;rounded=0;html=1;" edge="1" parent="1" source="19" target="24">
          <mxGeometry relative="1" as="geometry" />
        </mxCell>
      </root>
    </mxGraphModel>
  </diagram>
</mxfile>